<?xml version="1.0" encoding="utf-8"?>
<!-- Generator: Adobe Illustrator 26.0.3, SVG Export Plug-In . SVG Version: 6.00 Build 0)  -->
<svg version="1.1" id="Layer_1" xmlns="http://www.w3.org/2000/svg" xmlns:xlink="http://www.w3.org/1999/xlink" x="0px" y="0px"
	 viewBox="0 0 2000 2000" style="enable-background:new 0 0 2000 2000;" xml:space="preserve">
<style type="text/css">
	.st0{fill-rule:evenodd;clip-rule:evenodd;fill:#C2E4F8;}
	.st1{fill-rule:evenodd;clip-rule:evenodd;fill:#3D4A59;}
</style>
<g>
	<rect x="238.3" y="238.6" class="st0" width="1761.6" height="1761.4"/>
	<polygon class="st1" points="961.4,1418.9 1108.9,462.8 978.7,462.8 878.9,1132.9 877.7,1146.1 872,1123.1 778,753.1 666,753.1 
		564.9,1125.9 562.5,1138.4 562.3,1135.7 455.7,462.8 319,462.8 467.9,1418.9 604.6,1418.9 715.1,1032.8 715.3,1031.4 825.9,1418.9 
			"/>
	<path class="st1" d="M1372.8,578.7h-216l19.6-115.9h362.7v98l-132.8,154.8c11.2,2,22.4,4.7,33.4,8.4c23.2,8.1,44.8,19.8,63.6,35.7
		c18.7,15.9,33.2,35.2,43.4,57.5c10.8,23.6,15.3,49.1,15.3,75c0,31.8-6.1,63-20.2,91.7c-13.4,26.3-31.6,49.1-54.8,67.6
		c-23.6,18.5-50.5,31.6-79.1,40.3c-30.4,9-61.9,13.2-93.5,13.2c-26.3,0-52.8-1.8-78.6-6.9c-20.4-4.1-40.7-9.4-60.3-16.5l-25.1-8.8
		l32.8-115.7l30,13.9c14.1,6.5,29.3,10.8,44.4,13.9c19.2,4.1,39.3,5.5,58.9,5.5c17.5,0,35.2-2,51.8-7.3
		c14.1-4.3,27.7-10.6,39.5-19.6c10-7.7,18.3-16.9,24.2-28.1c5.9-11.4,8.2-23.6,8.2-36.1c0-23-5.5-44-26.1-56.4
		c-26.7-16.1-62.3-20-92.7-20h-80.9v-77.8L1372.8,578.7z"/>
	<path class="st1" d="M0.2,0.5v1880.7h1880.7V0.5H0.2z M119.3,119.5h1642.6v1642.6H119.3V119.5z"/>
</g>
</svg>
