<?xml version="1.0" encoding="utf-8"?>
<!-- Generator: Adobe Illustrator 26.0.3, SVG Export Plug-In . SVG Version: 6.00 Build 0)  -->
<svg version="1.1" id="Layer_1" xmlns="http://www.w3.org/2000/svg" xmlns:xlink="http://www.w3.org/1999/xlink" x="0px" y="0px"
	 viewBox="0 0 2000 2000" style="enable-background:new 0 0 2000 2000;" xml:space="preserve">
<style type="text/css">
	.st0{fill-rule:evenodd;clip-rule:evenodd;fill:#3D4A59;}
</style>
<polygon class="st0" points="1022.1,1508.5 1178.9,492 1040.5,492 934.4,1204.5 933.2,1218.5 927.1,1194 827.1,800.6 708.1,800.6 
	600.6,1197 598,1210.3 597.8,1207.4 484.5,492 339.1,492 497.4,1508.5 642.7,1508.5 760.3,1098 760.5,1096.5 878,1508.5 "/>
<path class="st0" d="M1459.6,615.2h-229.7l20.9-123.2h385.7v104.2l-141.1,164.5c11.9,2.1,23.8,5,35.5,9c24.6,8.6,47.6,21.1,67.7,38
	c19.8,16.9,35.3,37.4,46.1,61.2c11.5,25.1,16.3,52.2,16.3,79.8c0,33.8-6.5,67-21.5,97.5c-14.2,28-33.6,52.2-58.3,71.8
	c-25.1,19.6-53.7,33.6-84.1,42.8c-32.4,9.6-65.8,14-99.4,14c-28,0-56.2-1.9-83.5-7.3c-21.7-4.4-43.2-10-64.1-17.5l-26.7-9.4
	l34.9-123l31.9,14.8c15,6.9,31.1,11.5,47.2,14.8c20.5,4.4,41.8,5.8,62.6,5.8c18.6,0,37.4-2.1,55.1-7.7c15-4.6,29.4-11.3,42-20.9
	c10.6-8.1,19.4-18,25.7-29.9c6.3-12.1,8.8-25.1,8.8-38.4c0-24.4-5.8-46.8-27.8-59.9c-28.4-17.1-66.2-21.3-98.6-21.3h-86v-82.7
	L1459.6,615.2z"/>
<path class="st0" d="M0.2,0.5V2000h1999.5V0.5H0.2z M126.8,127.1h1746.4v1746.4H126.8V127.1z"/>
</svg>
