<?xml version="1.0" encoding="utf-8"?>
<!-- Generator: Adobe Illustrator 26.0.3, SVG Export Plug-In . SVG Version: 6.00 Build 0)  -->
<svg version="1.1" id="Layer_1" xmlns="http://www.w3.org/2000/svg" xmlns:xlink="http://www.w3.org/1999/xlink" x="0px" y="0px"
	 viewBox="0 0 570.2 169.2" style="enable-background:new 0 0 570.2 169.2;" xml:space="preserve">
<style type="text/css">
	.st0{fill-rule:evenodd;clip-rule:evenodd;fill:#3C4A59;}
</style>
<g>
	<g>
		<path class="st0" d="M236.6,10h311.9v137.7H236.6V10z M226.7,0v157.6h331.9V0H226.7z"/>
		<g>
			<path class="st0" d="M439.3,89.6v28.2c6.4,3,16.2,3.7,22.7,1.4c9.6-3.4,12.2-13.3,12.2-22.6c0-11.4-4-22.2-17.2-22.2
				C447.1,74.4,441.9,80.5,439.3,89.6 M361.3,88.9h36.1c-1.8-13.2-12.2-16.5-23.8-13.8C366.5,76.8,362.5,81.8,361.3,88.9z
				 M415.8,38.7h23.5v31c5-4.8,12.1-7,19-7c21.5,0,29.6,13.8,29.6,34c0,23.2-13.5,35.5-36.4,35.5c-7.9,0-18.5-1.2-25.2-5.8v-76
				h-10.6V38.7H415.8z M360.7,100.9c0.5,13,8.3,19.7,21.1,19.7c6.2,0,16.6-3.2,21.2-7.5l1.5-1.4l5.5,10.1
				c-6.4,5.7-13.3,8.6-21.7,10.1c-17,3-33.4-2.5-39.2-20c-2.9-8.7-2.9-20.5,0.2-29.1c5-13.9,17.3-20.2,31.5-20.2
				c13.5,0,23.3,5.1,27.5,18.5c2,6.3,1.9,13.2,1.5,19.7L360.7,100.9L360.7,100.9z M327.8,38.7h12.6l-14.3,92.4H313l-10.7-37.5
				l-10.7,37.5h-13.2L264,38.7h13.2l10.3,65v0.3l0.2-1.2l9.8-36h10.8l9.6,38l0.1-1.3L327.8,38.7z"/>
			<path class="st0" d="M516.7,49.9h-20.9l1.9-11.2h35.1v9.5l-12.8,15c1.1,0.2,2.2,0.5,3.2,0.8c2.3,0.8,4.3,1.9,6.2,3.5
				c1.8,1.5,3.2,3.4,4.2,5.6c1.1,2.3,1.5,4.8,1.5,7.3c0,3.1-0.6,6.1-2,8.9c-1.3,2.6-3.1,4.8-5.3,6.5c-2.3,1.8-4.9,3.1-7.6,3.9
				c-2.9,0.9-6,1.3-9,1.3c-2.5,0-5.1-0.2-7.6-0.7c-2-0.4-3.9-0.9-5.8-1.6l-2.4-0.9l3.2-11.2l2.9,1.3c1.4,0.6,2.8,1,4.3,1.4
				c1.9,0.4,3.8,0.5,5.7,0.5c1.7,0,3.4-0.2,5-0.7c1.4-0.4,2.7-1,3.8-1.9c1-0.7,1.8-1.6,2.3-2.7c0.6-1.1,0.8-2.3,0.8-3.5
				c0-2.2-0.5-4.2-2.5-5.5c-2.6-1.6-6-1.9-9-1.9h-7.8V66L516.7,49.9z"/>
		</g>
	</g>
</g>
<g>
	<g>
		<path class="st0" d="M164.8,88.9h36.1c-0.5-3.9-1.9-7.6-4.8-10.4c-3.1-3.1-7.1-4.2-11.4-4.2c-2.6,0-5.1,0.3-7.6,0.9
			c-2.2,0.5-4.2,1.4-6.1,2.7c-1.8,1.3-3.2,3-4.3,5C165.8,84.7,165.2,86.8,164.8,88.9 M164.3,100.9c0.2,5.3,1.6,10.7,5.6,14.5
			c4.3,3.9,9.7,5.3,15.4,5.3c2.2,0,4.3-0.3,6.4-0.8c2.1-0.5,4.2-1.2,6.3-1.9c1.8-0.7,3.5-1.5,5.2-2.4c1.1-0.7,2.4-1.5,3.4-2.4
			l1.5-1.4l5.5,10.1l-0.9,0.8c-1.7,1.5-3.7,2.9-5.7,4c-2.3,1.3-4.6,2.3-7.1,3.2c-2.6,0.9-5.3,1.6-8,2c-2.8,0.5-5.6,0.7-8.4,0.7
			c-4.8,0-9.6-0.7-14.1-2.5c-4-1.6-7.5-4-10.4-7.2s-5-7-6.3-11.1c-1.5-4.6-2.1-9.4-2.1-14.3c0-5,0.6-10.1,2.3-14.8
			c1.5-4.1,3.7-7.9,6.8-11s6.7-5.3,10.8-6.8c4.5-1.7,9.2-2.3,13.9-2.3c3.7,0,7.4,0.5,11,1.5c3.8,1,7.1,2.9,9.9,5.7
			c3.2,3.1,5.3,7.2,6.6,11.4c1.8,5.7,1.9,12.3,1.6,18.2l-0.1,1.5C213.4,100.9,164.3,100.9,164.3,100.9z"/>
		<path class="st0" d="M129.1,112.4c0-2.1-0.8-3.8-2.5-5c-2.2-1.6-4.8-2.6-7.4-3.3c-3.3-1-6.7-1.8-10.1-2.5
			c-3.6-0.7-7.1-1.8-10.5-3.1c-3.1-1.3-6-3.1-8.4-5.5c-2.7-2.8-3.6-6.4-3.6-10.2c0-3.2,0.6-6.3,2.3-9.1c1.5-2.5,3.6-4.6,6-6.2
			c2.6-1.7,5.5-2.8,8.5-3.5c3.3-0.8,6.6-1.1,9.9-1.1c5.3,0,10.8,0.6,15.9,2.3c3.6,1.2,7.4,2.8,10.6,4.8l1.2,0.8l-5.4,10.7l-1.4-0.8
			c-2.9-1.6-5.9-3-9-4.3c-3.6-1.5-7.8-2-11.7-2c-1.8,0-3.5,0.2-5.2,0.5c-1.6,0.3-3.1,0.8-4.6,1.6c-1.2,0.6-2.2,1.4-3,2.5
			s-1,2.3-1,3.6c0,1.8,0.9,2.9,2.4,3.8c2.3,1.3,4.9,2.2,7.5,2.8c3.4,0.9,6.8,1.6,10.2,2.3c3.6,0.7,7.2,1.8,10.6,3.2
			c3.2,1.4,6,3.3,8.4,5.9c2.6,2.9,3.6,6.5,3.6,10.4c0,6.4-2.6,11.7-7.5,15.7c-5.9,4.9-14.4,6.1-21.9,6.1c-2.9,0-5.8-0.3-8.6-0.8
			c-2.7-0.5-5.3-1.2-7.9-2.1c-2.3-0.8-4.6-1.8-6.7-3c-1.8-1-3.6-2.1-5.1-3.4l-1-0.9l6.8-11.1l1.4,1.4c1.1,1.1,2.5,2.1,3.8,2.9
			c1.7,1.1,3.5,2,5.4,2.8c2,0.8,4.1,1.5,6.3,2c2.2,0.5,4.5,0.7,6.7,0.7c2.1,0,4.1-0.2,6.1-0.5c1.7-0.3,3.3-0.8,4.9-1.6
			c1.2-0.7,2.3-1.5,3.1-2.7C128.9,115.2,129.1,113.8,129.1,112.4 M64.9,119.8h8.7v11.4H53.5l-0.3-8.4c-2,2.5-4.3,4.5-7.1,6.3
			c-4.2,2.7-9.1,3.7-14.1,3.7c-3.5,0-7.1-0.3-10.5-1.4c-3-1-5.6-2.7-7.5-5.2c-2.2-2.7-3.5-6.1-4.2-9.5c-1-4.6-1.3-9.5-1.3-14.2V75.9
			H0V64.3h21.7v36.1c0,3.1,0.1,6.2,0.4,9.2c0.2,2.2,0.7,4.5,1.7,6.5c0.8,1.6,1.9,2.8,3.5,3.6c1.9,1,4.4,1.3,6.5,1.3
			c4,0,7.5-1.3,10.4-3.9c3.1-2.8,5.4-6.1,6.9-10V75.9H43V64.3h21.4v45.1C64.4,112.8,64.5,116.3,64.9,119.8z"/>
	</g>
	<rect x="150.6" y="147.6" class="st0" width="63" height="10"/>
</g>
</svg>
